<svg width="116" height="38" viewBox="0 0 116 38" fill="none" xmlns="http://www.w3.org/2000/svg">
<rect width="116" height="38" rx="8" fill="#0D0E10"/>
<path fill-rule="evenodd" clip-rule="evenodd" d="M57.3609 7H58.2538V13.2474H57.3609V7ZM35.9899 7.29325C36.3814 7.26535 36.7742 7.32409 37.1402 7.46522C37.506 7.60636 37.8358 7.82637 38.1056 8.10938C38.3755 8.39241 38.5788 8.7314 38.7008 9.10181C38.8228 9.47232 38.8605 9.86508 38.8112 10.2518C38.8112 12.154 37.7758 13.2474 35.9899 13.2474H33.8241V7.29325H35.9899ZM34.7553 12.4054H35.8858C36.1657 12.4219 36.4456 12.3764 36.7054 12.272C36.9651 12.1676 37.1983 12.007 37.3877 11.8018C37.5771 11.5968 37.7181 11.3523 37.8003 11.0862C37.8826 10.8201 37.9041 10.5392 37.8632 10.2639C37.9011 9.98962 37.8774 9.71051 37.7939 9.44638C37.7103 9.18224 37.569 8.93976 37.38 8.73629C37.1911 8.53281 36.9591 8.37335 36.7008 8.26933C36.4425 8.16531 36.1641 8.11933 35.8858 8.13467H34.7553V12.4054ZM73.022 27.5947C71.3794 27.5947 70.1773 26.7879 70.0389 25.5591L68.1272 25.559C68.2479 27.8003 70.1163 29.2182 72.8836 29.2182C75.8413 29.2182 77.7009 27.7662 77.7009 25.4479C77.7009 23.6354 76.6372 22.6141 74.0769 22.0128L72.7021 21.6777C71.0938 21.283 70.4363 20.7675 70.4363 19.8915C70.4363 18.7922 71.4657 18.037 72.97 18.037C74.4743 18.037 75.5037 18.7834 75.6166 20.0201H77.5017C77.4409 17.8821 75.6332 16.4135 72.9965 16.4135C70.3323 16.4135 68.456 17.8821 68.456 20.0201C68.456 21.7468 69.5198 22.8109 71.8111 23.3606L73.4283 23.7474C75.0455 24.1421 75.7285 24.7181 75.7285 25.6798C75.7285 26.7879 74.596 27.5947 73.022 27.5947ZM35.7312 25.6624H40.4876L41.629 29.0116H43.6779L39.1727 16.6201H37.0796L32.5744 29.0116H34.589L35.7312 25.6624ZM39.9942 24.1168H36.2239L38.0835 18.6812H38.1356L39.9942 24.1168ZM49.6109 29.1058C51.8944 29.1058 53.4076 27.302 53.4076 24.4946C53.4076 21.6949 51.8855 19.8824 49.5766 19.8824C48.9934 19.8637 48.416 20.0023 47.906 20.2836C47.3959 20.5648 46.9721 20.9781 46.6797 21.4796H46.6454V19.9769H44.8377V32H46.7052V27.5252H46.7484C47.0279 28.029 47.4446 28.4445 47.9509 28.724C48.4571 29.0036 49.0324 29.1359 49.6109 29.1058ZM49.084 21.463C50.5363 21.463 51.4881 22.6655 51.4881 24.4946C51.4881 26.3403 50.5363 27.534 49.084 27.534C47.6571 27.534 46.6974 26.3149 46.6974 24.4946C46.6974 22.6908 47.6571 21.463 49.084 21.463ZM63.4209 24.4945C63.4209 27.302 61.9077 29.1058 59.6242 29.1058C59.0458 29.1358 58.4705 29.0035 57.9643 28.724C57.458 28.4445 57.0413 28.029 56.7617 27.5252H56.7185V32H54.8511V19.9769H56.6587V21.4796H56.693C56.9853 20.9781 57.4092 20.5648 57.9193 20.2836C58.4293 20.0023 59.0067 19.8637 59.5898 19.8824C61.8989 19.8824 63.4209 21.6949 63.4209 24.4945ZM61.5015 24.4945C61.5015 22.6654 60.5496 21.463 59.0972 21.463C57.6704 21.463 56.7107 22.6908 56.7107 24.4945C56.7107 26.3149 57.6704 27.5339 59.0972 27.5339C60.5496 27.5339 61.5015 26.3403 61.5015 24.4945ZM81.7311 17.8401V19.9782H83.4612V21.4466H81.7311V26.4272C81.7311 27.201 82.0775 27.5616 82.838 27.5616C83.0434 27.558 83.2485 27.5437 83.4524 27.5187V28.9785C83.1104 29.0418 82.7628 29.0706 82.4151 29.0642C80.5732 29.0642 79.8549 28.3771 79.8549 26.6251V21.4466H78.5321V19.9782H79.8549V17.8401H81.7311ZM88.7779 19.8671C86.149 19.8671 84.463 21.6533 84.463 24.4959C84.463 27.3462 86.1322 29.1247 88.7779 29.1247C91.4245 29.1247 93.0937 27.3463 93.0937 24.4959C93.0937 21.6532 91.4157 19.8671 88.7779 19.8671ZM88.7779 21.3951C90.291 21.3951 91.1909 22.5459 91.1909 24.4959C91.1909 26.4536 90.291 27.5958 88.7779 27.5958C87.2647 27.5958 86.3659 26.4536 86.3659 24.4959C86.3659 22.5547 87.2647 21.3951 88.7779 21.3951ZM94.6333 19.9768H96.4145V21.5145H96.4577C96.5781 21.0342 96.8615 20.6098 97.26 20.3126C97.6586 20.0153 98.1479 19.8634 98.6457 19.8823C98.8608 19.8815 99.0758 19.9047 99.2858 19.9514V21.686C99.0145 21.6036 98.7312 21.5657 98.4468 21.574C98.1755 21.563 97.905 21.6105 97.6539 21.7132C97.4028 21.8158 97.1771 21.9713 96.9922 22.1687C96.8074 22.3662 96.6678 22.6011 96.583 22.8572C96.4981 23.1133 96.4701 23.3846 96.5008 23.6525V29.0112H94.6333V19.9768ZM103.979 29.1247C106.036 29.1247 107.644 27.9991 107.895 26.3591H106.123C105.957 26.7673 105.663 27.1115 105.284 27.3404C104.906 27.5694 104.463 27.6709 104.022 27.6298C103.686 27.6421 103.35 27.5833 103.04 27.4573C102.728 27.3312 102.448 27.1408 102.216 26.8988C101.985 26.6568 101.808 26.3686 101.697 26.0535C101.586 25.7382 101.545 25.4033 101.574 25.0709V24.9588H108V24.3234C108 21.5841 106.417 19.8671 103.9 19.8671C101.341 19.8671 99.6888 21.7049 99.6888 24.5388C99.6888 27.3638 101.332 29.1247 103.979 29.1247ZM106.131 23.6627H101.583C101.582 23.3607 101.641 23.0615 101.758 22.7825C101.874 22.5034 102.045 22.25 102.26 22.0368C102.475 21.8237 102.731 21.6549 103.013 21.5405C103.294 21.4259 103.596 21.368 103.9 21.3698C104.202 21.3633 104.501 21.4189 104.779 21.5328C105.059 21.6468 105.311 21.8167 105.52 22.032C105.73 22.2474 105.892 22.5033 105.997 22.7839C106.103 23.0645 106.148 23.3637 106.131 23.6627ZM39.9627 10.125C39.8684 10.4065 39.8343 10.7044 39.8629 10.9997C39.8338 11.2953 39.8675 11.5937 39.9614 11.8756C40.0555 12.1575 40.2079 12.4167 40.4089 12.6366C40.6099 12.8567 40.855 13.0324 41.1284 13.1526C41.4018 13.273 41.6976 13.3351 41.9967 13.3351C42.2957 13.3351 42.5915 13.273 42.865 13.1526C43.1384 13.0324 43.3835 12.8567 43.5845 12.6366C43.7854 12.4167 43.9378 12.1575 44.0318 11.8756C44.1259 11.5937 44.1596 11.2953 44.1305 10.9997C44.159 10.7044 44.125 10.4065 44.0306 10.125C43.9364 9.8435 43.7838 9.58476 43.583 9.36523C43.3821 9.14569 43.1372 8.97037 42.864 8.85032C42.5908 8.73028 42.2954 8.66831 41.9967 8.66831C41.6979 8.66831 41.4025 8.73028 41.1294 8.85032C40.8562 8.97037 40.6113 9.14569 40.4104 9.36523C40.2094 9.58476 40.057 9.8435 39.9627 10.125ZM41.9982 9.45613C42.7714 9.45613 43.2121 10.0257 43.2121 10.9997C43.2121 11.9775 42.7714 12.5466 41.9982 12.5467C41.2219 12.5467 40.7853 11.9815 40.7853 10.9997C40.7853 10.0257 41.2219 9.45613 41.9982 9.45613ZM49.8036 13.2474H48.8774L47.9421 9.93804H47.8715L46.9402 13.2474H46.0227L44.7754 8.75407H45.6812L46.4917 12.1827H46.5585L47.4887 8.75407H48.3455L49.2758 12.1827H49.3464L50.153 8.75407H51.0461L49.8036 13.2474ZM52.9548 8.75369H52.0951V13.247H52.9881V10.6183C52.9723 10.4705 52.9888 10.3211 53.0366 10.1803C53.0843 10.0394 53.1622 9.91062 53.2648 9.80246C53.3675 9.69429 53.4924 9.60947 53.6312 9.55369C53.7698 9.49801 53.919 9.47276 54.0686 9.47964C54.729 9.47964 55.045 9.83878 55.045 10.5608V13.2469H55.9379V10.3381C55.9703 10.1213 55.953 9.89995 55.8875 9.69059C55.822 9.48124 55.7099 9.28915 55.5595 9.12869C55.4091 8.96814 55.2242 8.8433 55.0186 8.76337C54.813 8.68344 54.5919 8.65051 54.3717 8.66688C54.0908 8.64423 53.8097 8.70919 53.5676 8.85268C53.3257 8.99618 53.1347 9.21112 53.0215 9.46747H52.9548V8.75369ZM59.5948 10.1232C59.5005 10.4047 59.4665 10.7025 59.4948 10.9979C59.4659 11.2935 59.4996 11.5918 59.5936 11.8737C59.6878 12.1557 59.8401 12.415 60.0412 12.6349C60.2421 12.8548 60.4872 13.0305 60.7607 13.1508C61.0341 13.2711 61.3299 13.3332 61.629 13.3332C61.9281 13.3332 62.2238 13.2711 62.4973 13.1508C62.7708 13.0305 63.0159 12.8548 63.2168 12.6349C63.4178 12.415 63.5702 12.1557 63.6643 11.8737C63.7584 11.5918 63.792 11.2935 63.7631 10.9979C63.7915 10.7025 63.7575 10.4047 63.6631 10.1232C63.5688 9.84166 63.4163 9.58291 63.2153 9.36338C63.0145 9.14385 62.7696 8.96842 62.4964 8.84838C62.2231 8.72843 61.9277 8.66636 61.629 8.66636C61.3302 8.66636 61.0348 8.72843 60.7617 8.84838C60.4884 8.96842 60.2436 9.14385 60.0426 9.36338C59.8416 9.58291 59.6892 9.84166 59.5948 10.1232ZM61.6302 9.45428C62.4035 9.45428 62.844 10.0239 62.844 10.9979C62.844 11.9758 62.4035 12.5449 61.6302 12.5449C60.854 12.5449 60.4173 11.9797 60.4173 10.9979C60.4173 10.0239 60.854 9.45428 61.6302 9.45428ZM64.7035 11.9776C64.7035 11.1688 65.3099 10.7025 66.3864 10.6362L67.612 10.5661V10.1783C67.612 9.7037 67.2961 9.43568 66.6856 9.43568C66.1871 9.43568 65.8418 9.61739 65.7427 9.93511H64.8781C64.9693 9.16336 65.7005 8.66831 66.7269 8.66831C67.8613 8.66831 68.5011 9.22912 68.5011 10.1783V13.2483H67.6415V12.6169H67.5708C67.4274 12.8434 67.2261 13.028 66.9873 13.152C66.7485 13.276 66.4809 13.3348 66.2118 13.3224C66.0217 13.342 65.8298 13.3219 65.6481 13.2633C65.4665 13.2047 65.2992 13.109 65.1572 12.9823C65.0151 12.8556 64.9012 12.7007 64.8231 12.5277C64.745 12.3546 64.7042 12.1672 64.7035 11.9776ZM67.612 11.5937V11.218L66.5071 11.2882C65.884 11.3296 65.6013 11.5401 65.6013 11.9362C65.6013 12.3406 65.9546 12.576 66.4404 12.576C66.5828 12.5902 66.7265 12.576 66.8632 12.534C66.9999 12.492 67.1266 12.4231 67.2359 12.3315C67.3452 12.2398 67.4349 12.1272 67.4995 12.0005C67.5641 11.8738 67.6024 11.7354 67.612 11.5937ZM71.553 8.67951C70.4098 8.67951 69.6747 9.579 69.6747 10.9988C69.6747 12.422 70.4019 13.3215 71.553 13.3214C71.8393 13.332 72.123 13.2644 72.3736 13.1262C72.624 12.988 72.8316 12.7845 72.974 12.5375H73.0446V13.2474H73.9002V7H73.0073V9.46783H72.9405C72.8085 9.21926 72.6078 9.013 72.3621 8.8735C72.1164 8.7339 71.8358 8.66664 71.553 8.67951ZM71.8062 12.5253C71.0496 12.5253 70.5972 11.9518 70.5972 10.9988C70.5972 10.0536 71.0545 9.47621 71.8062 9.47621C72.5539 9.47621 73.024 10.0663 73.024 11.0027C73.024 11.9435 72.5589 12.5253 71.8062 12.5253ZM77.5947 10.9997C77.5663 10.7044 77.6003 10.4065 77.6946 10.125C77.7889 9.8435 77.9414 9.58476 78.1423 9.36523C78.3432 9.14569 78.588 8.97037 78.8613 8.85032C79.1344 8.73028 79.4298 8.66831 79.7286 8.66831C80.0273 8.66831 80.3227 8.73028 80.5959 8.85032C80.8691 8.97037 81.114 9.14569 81.3148 9.36523C81.5158 9.58476 81.6683 9.8435 81.7626 10.125C81.8569 10.4065 81.8909 10.7044 81.8624 10.9997C81.8914 11.2953 81.8578 11.5937 81.7637 11.8756C81.6698 12.1575 81.5173 12.4167 81.3164 12.6366C81.1154 12.8567 80.8703 13.0324 80.5969 13.1526C80.3234 13.273 80.0276 13.3351 79.7286 13.3351C79.4295 13.3351 79.1337 13.273 78.8603 13.1526C78.5868 13.0324 78.3418 12.8567 78.1408 12.6366C77.9398 12.4167 77.7875 12.1575 77.6934 11.8756C77.5994 11.5937 77.5657 11.2953 77.5947 10.9997ZM80.9439 10.9997C80.9439 10.0257 80.5033 9.45613 79.7301 9.45613C78.9538 9.45613 78.5172 10.0257 78.5172 10.9997C78.5172 11.9815 78.9538 12.5467 79.7301 12.5467C80.5033 12.5466 80.9439 11.9775 80.9439 10.9997ZM83.9205 8.75369H83.0608V13.247H83.9538V10.6183C83.938 10.4705 83.9545 10.3211 84.0023 10.1803C84.0501 10.0394 84.1279 9.91062 84.2306 9.80246C84.3332 9.69429 84.4581 9.60947 84.5968 9.55369C84.7355 9.49801 84.8848 9.47276 85.0343 9.47964C85.6947 9.47964 86.0107 9.83878 86.0107 10.5608V13.2469H86.9037V10.3381C86.936 10.1213 86.9188 9.89995 86.8533 9.69059C86.7877 9.48124 86.6756 9.28915 86.5252 9.12869C86.3747 8.96814 86.1899 8.8433 85.9844 8.76337C85.7788 8.68344 85.5577 8.65051 85.3375 8.66688C85.0566 8.64423 84.7754 8.70919 84.5333 8.85268C84.2914 8.99618 84.1004 9.21112 83.9872 9.46747H83.9205V8.75369ZM91.9494 7.63536V8.77451H92.9298V9.52152H91.9494V11.832C91.9494 12.3027 92.1448 12.5087 92.5893 12.5087C92.7031 12.5083 92.8168 12.5016 92.9298 12.4883V13.2269C92.7694 13.2554 92.6069 13.2706 92.444 13.2722C91.4509 13.2722 91.0555 12.9254 91.0555 12.059V9.52142H90.3371V8.77451H91.0555V7.63536H91.9494ZM95.0347 7H94.1496V13.2474H95.0426V10.6231C95.0289 10.4708 95.049 10.3173 95.1013 10.1735C95.1537 10.0297 95.237 9.89891 95.3455 9.79044C95.454 9.68197 95.5851 9.59825 95.7295 9.54537C95.874 9.49238 96.0284 9.47142 96.1819 9.484C96.8129 9.484 97.1495 9.84742 97.1495 10.5652V13.2474H98.0433V10.3464C98.0726 10.1305 98.0535 9.91089 97.9874 9.70323C97.9212 9.49547 97.8098 9.30488 97.661 9.14482C97.5121 8.98486 97.3296 8.85943 97.1263 8.77761C96.923 8.69568 96.704 8.65936 96.4851 8.67123C96.1996 8.64828 95.914 8.71314 95.6671 8.85724C95.4202 9.00123 95.2241 9.21737 95.1054 9.47621H95.0347V7ZM103.25 12.0333C103.129 12.444 102.866 12.7991 102.507 13.0368C102.15 13.2744 101.719 13.3794 101.29 13.3332C100.992 13.3411 100.696 13.2844 100.421 13.167C100.148 13.0498 99.9028 12.8748 99.7039 12.654C99.5049 12.4334 99.3572 12.1724 99.2698 11.8892C99.1824 11.606 99.1592 11.3073 99.1994 11.0139C99.1602 10.7198 99.1844 10.4204 99.2708 10.1363C99.3582 9.85231 99.5059 9.59007 99.7029 9.36744C99.9008 9.14492 100.145 8.9671 100.418 8.84615C100.691 8.72521 100.987 8.66394 101.286 8.66644C102.545 8.66644 103.304 9.52061 103.304 10.9316V11.241H100.109V11.2907C100.095 11.4556 100.116 11.6216 100.17 11.778C100.225 11.9345 100.312 12.0779 100.425 12.199C100.539 12.3202 100.677 12.4165 100.829 12.4818C100.982 12.5471 101.148 12.5798 101.315 12.578C101.528 12.6034 101.745 12.5652 101.936 12.4682C102.128 12.3712 102.286 12.2199 102.391 12.0333H103.25ZM100.109 10.5851H102.395C102.406 10.4344 102.385 10.2829 102.335 10.1405C102.283 9.99809 102.202 9.86787 102.097 9.75821C101.993 9.64864 101.865 9.56203 101.725 9.50395C101.584 9.44587 101.433 9.41773 101.281 9.42113C101.127 9.41923 100.973 9.44807 100.83 9.50585C100.687 9.56372 100.557 9.64934 100.447 9.75781C100.339 9.86628 100.253 9.9954 100.194 10.1375C100.136 10.2796 100.107 10.4318 100.109 10.5851ZM20.1246 10.7658C20.94 9.79364 21.3418 8.54415 21.2445 7.2826C19.9987 7.41254 18.8478 8.00384 18.0213 8.93866C17.6173 9.39539 17.3078 9.92666 17.1105 10.5022C16.9133 11.0778 16.8323 11.6862 16.872 12.2929C17.4952 12.2993 18.1116 12.1652 18.6751 11.9006C19.2385 11.6361 19.7341 11.248 20.1246 10.7658ZM22.8692 18.8374C22.88 18.0046 23.1028 17.1879 23.5169 16.4635C23.9309 15.7391 24.5227 15.1304 25.2373 14.6943C24.7833 14.0504 24.1845 13.5207 23.4882 13.1469C22.7921 12.7732 22.0177 12.5657 21.2267 12.5412C20.1945 12.4335 19.1816 12.8327 18.3538 13.159C17.8283 13.3661 17.3774 13.5438 17.0435 13.5438C16.6637 13.5438 16.1998 13.3588 15.6801 13.1515C15.0005 12.8804 14.2253 12.5712 13.4175 12.5878C12.4953 12.6173 11.5967 12.8836 10.809 13.3606C10.0213 13.8377 9.37144 14.5093 8.92287 15.3097C6.97944 18.6511 8.42908 23.5616 10.2907 26.2625C11.2221 27.585 12.3107 29.0623 13.7349 29.0099C14.3811 28.9833 14.8396 28.7917 15.3131 28.5938C15.8611 28.3647 16.4293 28.1273 17.3317 28.1273C18.1827 28.1273 18.7266 28.3573 19.2484 28.5781C19.7488 28.7898 20.2289 28.9929 20.9402 28.9766C22.4358 28.9525 23.3781 27.6482 24.2768 26.3132C24.9461 25.3708 25.4611 24.3293 25.8026 23.2272C24.9337 22.8623 24.1922 22.2514 23.6706 21.4708C23.149 20.6902 22.8702 19.7743 22.8692 18.8374Z" fill="#F6F6F6"/>
</svg>
