<svg width="16" height="16" viewBox="0 0 16 16" fill="none" xmlns="http://www.w3.org/2000/svg">
<path d="M1.9534 11.533C2.00314 12.0281 2.23563 12.4868 2.60545 12.8196C2.97526 13.1525 3.45586 13.3355 3.9534 13.333H12.0534C12.5509 13.3355 13.0315 13.1525 13.4014 12.8196C13.7712 12.4868 14.0037 12.0281 14.0534 11.533L14.1401 10.6664H1.86673L1.9534 11.533ZM14.4934 4.66636C14.3591 4.42437 14.1528 4.23018 13.9031 4.11072C13.6534 3.99126 13.3728 3.95246 13.1001 3.9997C12.8295 4.04766 12.5804 4.17805 12.3867 4.37303L11.8134 4.9397C11.7526 5.00206 11.6801 5.05188 11.6001 5.08636C11.5195 5.11824 11.4334 5.13409 11.3467 5.13303C11.2585 5.13266 11.1713 5.1148 11.09 5.08047C11.0088 5.04614 10.9351 4.99602 10.8734 4.93303L9.02006 3.06636C8.77113 2.82406 8.43746 2.68848 8.09006 2.68848C7.74267 2.68848 7.409 2.82406 7.16006 3.06636L5.16006 5.01303C5.09376 5.07368 5.01588 5.1203 4.9311 5.15008C4.84632 5.17987 4.7564 5.19221 4.66673 5.18636C4.49184 5.18563 4.32424 5.11619 4.20006 4.99303L3.60006 4.39303C3.41447 4.19429 3.17254 4.05704 2.90673 3.9997C2.63198 3.94949 2.3484 3.98682 2.09601 4.10644C1.84362 4.22606 1.63516 4.42191 1.50006 4.66636C1.36502 4.91009 1.30691 5.18899 1.3334 5.46636L1.7334 9.33303H14.2667L14.6667 5.46636C14.6916 5.18828 14.6312 4.90921 14.4934 4.66636Z" fill="#F2BE75"/>
</svg>
