<svg width="128" height="38" viewBox="0 0 128 38" fill="none" xmlns="http://www.w3.org/2000/svg">
<rect width="128" height="38" rx="8" fill="#0D0E10"/>
<path fill-rule="evenodd" clip-rule="evenodd" d="M67.0955 11.9879C67.4597 11.8318 67.7885 11.6036 68.0618 11.3172C68.359 11.0332 68.5957 10.6925 68.7579 10.3151C68.92 9.9379 69.0042 9.53188 69.0054 9.12146C69.0132 8.71318 68.9397 8.30741 68.789 7.92767C68.6384 7.54792 68.4137 7.20175 68.128 6.9092C67.8453 6.61699 67.5054 6.38567 67.1296 6.22949C66.7537 6.07332 66.3497 5.99562 65.9425 6.00119C65.5345 5.98952 65.1287 6.06443 64.7519 6.22097C64.3752 6.37751 64.0361 6.6121 63.7571 6.9092C63.4645 7.19756 63.2342 7.54262 63.0805 7.92308C62.9267 8.30356 62.8527 8.71139 62.863 9.12146C62.8549 9.52881 62.93 9.93344 63.0838 10.311C63.2375 10.6884 63.4665 11.0308 63.7571 11.3172C64.0361 11.6144 64.3752 11.8489 64.7519 12.0055C65.1287 12.162 65.5345 12.2369 65.9425 12.2253C66.339 12.2247 66.7312 12.144 67.0955 11.9879ZM65.0414 11.3386C64.7559 11.2218 64.4986 11.0457 64.2868 10.822C64.0719 10.6046 63.9026 10.3465 63.7888 10.063C63.6751 9.77954 63.6193 9.47632 63.6246 9.17102C63.6176 8.55498 63.8557 7.9613 64.2868 7.52005C64.4994 7.2984 64.7572 7.12476 65.0429 7.01085C65.3285 6.89693 65.6352 6.84538 65.9425 6.85967C66.2493 6.84955 66.5548 6.90302 66.8398 7.01669C67.1248 7.13036 67.383 7.30177 67.5981 7.52005C68.0233 7.96517 68.2604 8.55631 68.2604 9.17102C68.2639 9.78639 68.0263 10.3787 67.5981 10.822C67.3845 11.0432 67.1269 11.2177 66.8418 11.3342C66.5568 11.4507 66.2505 11.5068 65.9425 11.4989C65.6341 11.51 65.327 11.4553 65.0414 11.3386ZM41.8362 10.4295C41.9642 10.086 42.0207 9.71993 42.0018 9.354C42.0017 9.20397 41.9851 9.05452 41.9522 8.9082H39.0714V9.61812H41.2071C41.1923 10.0695 41.0093 10.4992 40.6939 10.8233C40.4802 11.0445 40.2226 11.2191 39.9375 11.3356C39.6525 11.4521 39.3462 11.5082 39.0383 11.5002C38.7269 11.505 38.4178 11.4463 38.1301 11.3276C37.8423 11.2089 37.5818 11.0329 37.3648 10.8103C37.1477 10.5876 36.9786 10.3231 36.8677 10.033C36.757 9.74275 36.7067 9.43308 36.7204 9.12281C36.7067 8.8126 36.757 8.50289 36.8677 8.2127C36.9786 7.92251 37.1477 7.65798 37.3648 7.43533C37.5818 7.2127 37.8423 7.03666 38.1301 6.91802C38.4178 6.79939 38.7269 6.74066 39.0383 6.74546C39.3494 6.7233 39.6615 6.77453 39.9491 6.89499C40.2367 7.01546 40.492 7.20178 40.6939 7.43886L41.2238 6.92707C40.9728 6.63135 40.655 6.39934 40.2965 6.25018C39.9092 6.08586 39.4924 6.00162 39.0714 6.00254C38.6629 5.99451 38.257 6.06942 37.8785 6.22267C37.4999 6.37593 37.1567 6.60435 36.8693 6.89405C36.5733 7.1841 36.3399 7.53142 36.1833 7.91467C36.0267 8.29794 35.9502 8.70906 35.9587 9.12281C35.9543 9.5316 36.0318 9.93722 36.1866 10.3158C36.3415 10.6944 36.5706 11.0383 36.8606 11.3274C37.1505 11.6165 37.4954 11.845 37.875 11.9993C38.2546 12.1537 38.6614 12.231 39.0714 12.2266C39.4767 12.2405 39.8803 12.1697 40.2567 12.0191C40.633 11.8684 40.9736 11.6411 41.2568 11.3516C41.5109 11.0868 41.708 10.773 41.8362 10.4295ZM43.8727 6.87664H46.5879V6.13372H43.0945V12.0936H46.5879V11.3672H43.8727V9.46858H46.3231V8.75872H43.8727V6.87664ZM49.8167 12.0936H49.0551V6.87664H47.3994V6.13372H51.5054V6.87664H49.8498L49.8167 12.0936ZM54.4523 6.13372V12.0936H55.2304V6.13372H54.4523ZM58.6249 12.0936H57.8633V6.87664H56.2076V6.13372H60.3137V6.87664H58.658L58.6249 12.0936ZM70.0154 12.0936V6.13372H70.9095L73.8235 10.7729V9.61722V6.13372H74.585V12.0936H73.7903L70.777 7.23985V8.37901V12.0936H70.0154ZM60.2792 21.499C60.9744 21.032 61.7929 20.7808 62.6312 20.7776C63.1903 20.7665 63.7458 20.8676 64.2649 21.0747C64.784 21.282 65.256 21.5911 65.6529 21.9838C66.0498 22.3765 66.3636 22.8449 66.5754 23.3608C66.7873 23.8768 66.893 24.43 66.8862 24.9874C66.8895 25.8234 66.6441 26.6415 66.1811 27.3383C65.7181 28.0351 65.0582 28.5795 64.285 28.9023C63.5118 29.2252 62.6599 29.3122 61.8372 29.1524C61.0143 28.9925 60.2575 28.5929 59.6624 28.0042C59.0673 27.4154 58.6608 26.6639 58.494 25.8447C58.3273 25.0254 58.4079 24.1754 58.7257 23.4019C59.0434 22.6283 59.584 21.9661 60.2792 21.499ZM61.1593 27.2062C61.6045 27.4643 62.1175 27.5829 62.6312 27.5465C62.9573 27.538 63.2785 27.4647 63.5759 27.3309C63.8733 27.197 64.1409 27.0053 64.3629 26.7669C64.585 26.5286 64.7572 26.2484 64.8691 25.9429C64.9811 25.6373 65.0309 25.3125 65.0154 24.9874C65.0141 24.4739 64.8578 23.9726 64.5669 23.5487C64.276 23.125 63.864 22.7981 63.3844 22.611C62.9048 22.4239 62.3797 22.3849 61.8777 22.4993C61.3755 22.6136 60.9195 22.876 60.569 23.2523C60.2184 23.6285 59.9895 24.1012 59.912 24.609C59.8346 25.1167 59.9121 25.636 60.1346 26.0991C60.3569 26.5624 60.714 26.9481 61.1593 27.2062ZM51.0214 21.5229C51.71 21.0499 52.5235 20.7907 53.3595 20.7776H53.343C53.9081 20.755 54.4719 20.8477 54.9998 21.05C55.5278 21.2523 56.0087 21.56 56.4133 21.9541C56.8179 22.3482 57.1375 22.8205 57.3526 23.3421C57.5676 23.8638 57.6737 24.4236 57.6642 24.9874C57.6674 25.8213 57.4232 26.6373 56.9623 27.3331C56.5015 28.0287 55.8445 28.5729 55.0742 28.8972C54.3038 29.2214 53.4545 29.3112 52.6332 29.1554C51.8117 28.9994 51.0549 28.6047 50.458 28.0209C49.861 27.437 49.4506 26.6902 49.2783 25.8744C49.1059 25.0585 49.1796 24.21 49.4897 23.4357C49.7998 22.6614 50.3327 21.9959 51.0214 21.5229ZM51.8916 27.1977C52.3348 27.4581 52.8462 27.5795 53.3595 27.5465H53.343C53.6719 27.5424 53.9968 27.4723 54.298 27.3404C54.5992 27.2084 54.8707 27.0174 55.0962 26.7786C55.3219 26.5398 55.4969 26.2581 55.6109 25.9504C55.7251 25.6427 55.7758 25.3152 55.7602 24.9874C55.7592 24.4746 55.6035 23.9738 55.3135 23.5501C55.0235 23.1265 54.6126 22.7995 54.1339 22.6117C53.6553 22.4239 53.131 22.3837 52.6293 22.4966C52.1275 22.6094 51.6713 22.8701 51.3199 23.2446C50.9685 23.6192 50.7381 24.0905 50.6586 24.5972C50.579 25.1039 50.654 25.6229 50.8739 26.0866C51.0938 26.5503 51.4483 26.9375 51.8916 27.1977ZM42.3495 23.8649V22.0654H48.5581C48.5858 22.439 48.5858 22.8143 48.5581 23.188C48.5917 23.9953 48.4555 24.8007 48.1584 25.5525C47.8613 26.3042 47.4099 26.9858 46.833 27.5532C46.2561 28.1207 45.5666 28.5615 44.8087 28.8476C44.0508 29.1335 43.2413 29.2584 42.4323 29.2139C41.5012 29.3283 40.5565 29.2441 39.6605 28.9669C38.7646 28.6898 37.938 28.226 37.2353 27.6064C36.5327 26.9868 35.97 26.2253 35.5847 25.3725C35.1993 24.5197 35 23.5951 35 22.6597C35 21.7243 35.1993 20.7996 35.5847 19.9468C35.97 19.094 36.5327 18.3325 37.2353 17.7129C37.938 17.0933 38.7646 16.6295 39.6605 16.3524C40.5565 16.0752 41.5012 15.9911 42.4323 16.1054C43.2647 16.095 44.091 16.2487 44.8638 16.5575C45.6366 16.8662 46.3407 17.3241 46.9356 17.9049L45.6608 19.1761C45.2247 18.7496 44.7065 18.4155 44.1374 18.1941C43.5682 17.9728 42.96 17.8688 42.3495 17.8884C41.0804 17.8884 39.8634 18.3911 38.966 19.2859C38.0687 20.1806 37.5646 21.3942 37.5646 22.6597C37.5646 23.9251 38.0687 25.1387 38.966 26.0334C39.8634 26.9282 41.0804 27.4309 42.3495 27.4309C42.9634 27.4542 43.5753 27.3486 44.1457 27.1211C44.7161 26.8936 45.2322 26.5492 45.6608 26.1101C46.2302 25.4925 46.5744 24.7015 46.6376 23.8649H42.3495ZM86.0769 21.626C86.7258 22.1047 87.2108 22.7711 87.466 23.5346L87.5488 23.9309L81.8864 26.2752C82.0618 26.6677 82.3511 26.9987 82.7172 27.2253C83.0831 27.4519 83.509 27.5638 83.9394 27.5465C84.3574 27.5487 84.7689 27.4435 85.1343 27.2411C85.4997 27.0387 85.8066 26.7459 86.0256 26.3908L87.466 27.3483C87.0975 27.9235 86.5948 28.4012 86.0008 28.7405C85.4069 29.0798 84.7394 29.2705 84.0553 29.2965C83.4977 29.3055 82.9441 29.2021 82.4276 28.9925C81.9111 28.7829 81.4424 28.4714 81.0497 28.0766C80.6568 27.6819 80.3482 27.2121 80.142 26.6955C79.9359 26.1788 79.8366 25.6259 79.85 25.07C79.8231 24.5295 79.9063 23.9892 80.0944 23.4816C80.2824 22.9739 80.5716 22.5095 80.9443 22.1163C81.3171 21.7229 81.7658 21.4089 82.2634 21.193C82.7611 20.9772 83.2974 20.8639 83.8401 20.8601C84.6469 20.88 85.428 21.1475 86.0769 21.626ZM81.8257 24.0507C81.7255 24.3409 81.6842 24.6482 81.7043 24.9545L85.4792 23.3861C85.332 23.1013 85.1049 22.8655 84.8256 22.7071C84.5464 22.5489 84.227 22.475 83.9064 22.4946C83.5988 22.5093 83.2974 22.5849 83.0195 22.717C82.7417 22.8491 82.493 23.0351 82.288 23.2641C82.0831 23.4931 81.9259 23.7605 81.8257 24.0507ZM78.8897 28.9498H77.0354V16.5512H78.8897V28.9498ZM72.9812 21.01C73.3637 21.1723 73.7073 21.4139 73.9889 21.7186V21.0252H75.7109V28.6031C75.7925 29.1662 75.7478 29.7403 75.5801 30.284C75.4124 30.8278 75.1258 31.3277 74.741 31.7478C74.3562 32.1678 73.8827 32.4975 73.3547 32.7132C72.8267 32.9288 72.2574 33.0248 71.6876 32.9945C70.8858 32.9981 70.1012 32.7628 69.4345 32.3186C68.7677 31.8743 68.2494 31.2417 67.9458 30.5016L69.6014 29.8413C69.7673 30.2718 70.0569 30.644 70.4339 30.9112C70.8109 31.1784 71.2585 31.3288 71.7208 31.3436C72.0423 31.3619 72.3638 31.3084 72.6621 31.1871C72.9603 31.066 73.2278 30.88 73.445 30.6429C73.6622 30.4058 73.8237 30.1234 73.9178 29.8162C74.0119 29.5091 74.0362 29.1849 73.9889 28.8672V28.2564C73.7108 28.5667 73.3684 28.813 72.9853 28.9784C72.6022 29.1437 72.1877 29.2241 71.7704 29.2139C70.6942 29.1467 69.6841 28.6731 68.946 27.8894C68.2077 27.1057 67.7967 26.0709 67.7967 24.9958C67.7967 23.9205 68.2077 22.8857 68.946 22.1021C69.6841 21.3184 70.6942 20.8447 71.7704 20.7776C72.1859 20.7685 72.5988 20.8478 72.9812 21.01ZM70.2183 26.7026C70.6408 27.1746 71.2228 27.4749 71.8532 27.5465C72.1716 27.5341 72.4842 27.4578 72.7724 27.322C73.0604 27.1863 73.3181 26.994 73.53 26.7566C73.7417 26.5191 73.9033 26.2416 74.0049 25.9405C74.1065 25.6393 74.1462 25.3208 74.1214 25.004C74.1485 24.685 74.1107 24.3639 74.0103 24.0599C73.9099 23.7559 73.749 23.4752 73.5372 23.2347C73.3254 22.9942 73.067 22.7988 72.7776 22.6603C72.4883 22.5218 72.1739 22.4429 71.8532 22.4285C71.2228 22.5001 70.6408 22.8004 70.2183 23.2724C69.7959 23.7443 69.5623 24.3548 69.5623 24.9874C69.5623 25.6202 69.7959 26.2307 70.2183 26.7026ZM91.6713 16.5512H96.1084C96.6377 16.5166 97.1681 16.5907 97.6665 16.7688C98.166 16.9469 98.6237 17.2252 99.0098 17.5866C99.3968 17.948 99.7053 18.3846 99.9162 18.8696C100.127 19.3545 100.236 19.8775 100.236 20.4061C100.236 20.9347 100.127 21.4576 99.9162 21.9426C99.7053 22.4276 99.3968 22.8643 99.0098 23.2257C98.6237 23.587 98.166 23.8653 97.6665 24.0435C97.1681 24.2216 96.6377 24.2956 96.1084 24.261H93.5257V28.9498H91.6713V16.5512ZM93.5257 22.5275H96.1084H96.1581C96.4536 22.5535 96.7512 22.518 97.0317 22.4233C97.3123 22.3284 97.57 22.1764 97.7879 21.9769C98.0068 21.7773 98.1809 21.5346 98.3003 21.2642C98.4197 20.9939 98.4814 20.7016 98.4814 20.4061C98.4814 20.1107 98.4197 19.8184 98.3003 19.548C98.1809 19.2775 98.0068 19.0348 97.7879 18.8353C97.57 18.6359 97.3123 18.4839 97.0317 18.389C96.7512 18.2942 96.4536 18.2586 96.1581 18.2846H93.5257V22.5275ZM105.643 21.2026C106.231 20.8655 106.905 20.7063 107.583 20.7445H107.632C108.1 20.715 108.57 20.7821 109.011 20.9419C109.452 21.1016 109.856 21.3504 110.196 21.6727C110.537 21.9951 110.806 22.3841 110.989 22.8152C111.171 23.2464 111.263 23.7105 111.258 24.1785V28.9828H109.47V28.0252C109.222 28.423 108.872 28.7467 108.455 28.9618C108.038 29.1769 107.571 29.2754 107.102 29.2469C106.718 29.2737 106.333 29.2236 105.969 29.0996C105.605 28.9755 105.269 28.78 104.983 28.5245C104.695 28.2691 104.462 27.9589 104.298 27.6123C104.133 27.2657 104.039 26.8896 104.023 26.5063C104.023 24.6903 105.827 23.7162 107.598 23.7162C108.273 23.7192 108.938 23.8834 109.536 24.1951V24.0795C109.519 23.842 109.455 23.6103 109.348 23.398C109.239 23.1858 109.09 22.9971 108.908 22.8433C108.726 22.6894 108.515 22.5734 108.287 22.5021C108.059 22.431 107.819 22.4059 107.583 22.4285C107.248 22.4046 106.914 22.4775 106.619 22.6387C106.326 22.7998 106.085 23.0421 105.927 23.3366L104.271 22.6431C104.579 22.0403 105.055 21.5398 105.643 21.2026ZM105.91 26.4899C105.91 27.2493 106.755 27.5465 107.367 27.5465H107.416C107.945 27.5195 108.447 27.3078 108.834 26.9486C109.222 26.5893 109.47 26.1054 109.536 25.5818C109.029 25.3024 108.459 25.1601 107.88 25.1691C106.97 25.1691 105.91 25.7304 105.91 26.4899ZM115.761 26.4073L117.897 21.0252H120L114.9 32.7139H112.963L114.851 28.537L111.54 21.0252H113.559L115.761 26.4073ZM103.03 28.9498H101.175L101.225 16.5512H103.03V28.9498Z" fill="#F6F6F6"/>
<path d="M8.53265 6.44674C8.3566 6.63425 8.2191 6.85558 8.12819 7.09775C8.03736 7.33992 7.99503 7.59807 8.00367 7.85706V30.1705C7.97272 30.6887 8.13832 31.1994 8.46658 31.5976L20.783 19.0893V18.8039L8.59882 6.36279L8.53265 6.44674Z" fill="url(#paint0_linear_2041_169449)"/>
<path d="M25.0152 23.3369L20.9153 19.1563V18.8709L25.0152 14.707H25.0979L29.9583 17.5109C31.347 18.3168 31.347 19.6264 29.9583 20.4155L25.0979 23.2194L25.0152 23.3369Z" fill="url(#paint1_linear_2041_169449)"/>
<path d="M25.0978 23.2688L20.9152 19.021L8.53271 31.5965C8.82461 31.8307 9.18575 31.9581 9.55772 31.9581C9.9297 31.9581 10.2908 31.8307 10.5827 31.5965L25.0978 23.2016" fill="url(#paint2_linear_2041_169449)"/>
<path d="M25.0978 14.7565L10.5827 6.36165C10.2908 6.12741 9.9297 6 9.55772 6C9.18575 6 8.82461 6.12741 8.53271 6.36165L20.9152 18.9371L25.0978 14.7565Z" fill="url(#paint3_linear_2041_169449)"/>
<path opacity="0.2" d="M25.0155 23.1855L10.583 31.5803C10.2968 31.7982 9.94871 31.9161 9.59105 31.9161C9.23338 31.9161 8.88525 31.7982 8.59912 31.5803V31.6642C8.88525 31.8822 9.23338 32.0001 9.59105 32.0001C9.94871 32.0001 10.2968 31.8822 10.583 31.6642L25.0981 23.2694L25.0155 23.1855Z" fill="#0D0E10"/>
<path opacity="0.12" d="M29.9585 20.3305L24.9989 23.1849L25.0816 23.2688L29.942 20.4649C30.2268 20.3405 30.4735 20.141 30.6567 19.8872C30.8398 19.6333 30.9526 19.3342 30.9835 19.021C30.9238 19.3048 30.8001 19.5707 30.6223 19.798C30.4446 20.0251 30.2173 20.2074 29.9585 20.3305Z" fill="#0D0E10"/>
<path opacity="0.25" d="M10.5829 6.53019L29.9585 17.7121C30.2226 17.8298 30.4551 18.0101 30.6363 18.2381C30.8175 18.4659 30.9423 18.7346 31 19.0217C30.9719 18.7055 30.8604 18.403 30.677 18.1459C30.4937 17.8887 30.2454 17.6866 29.9585 17.561L10.5829 6.37909C9.19426 5.57318 8.00391 6.24476 8.00391 7.85657V8.00767C8.00391 6.39587 9.19426 5.72429 10.5829 6.53019Z" fill="#F6F6F6"/>
<defs>
<linearGradient id="paint0_linear_2041_169449" x1="19.8076" y1="7.62201" x2="2.88539" y2="24.3011" gradientUnits="userSpaceOnUse">
<stop stop-color="#00A0FF"/>
<stop offset="0.01" stop-color="#00A1FF"/>
<stop offset="0.26" stop-color="#00BEFF"/>
<stop offset="0.51" stop-color="#00D2FF"/>
<stop offset="0.76" stop-color="#00DFFF"/>
<stop offset="1" stop-color="#00E3FF"/>
</linearGradient>
<linearGradient id="paint1_linear_2041_169449" x1="31.7768" y1="19.022" x2="7.73923" y2="19.022" gradientUnits="userSpaceOnUse">
<stop stop-color="#FFE000"/>
<stop offset="0.41" stop-color="#FFBD00"/>
<stop offset="0.78" stop-color="#FFA500"/>
<stop offset="1" stop-color="#FF9C00"/>
</linearGradient>
<linearGradient id="paint2_linear_2041_169449" x1="22.8164" y1="21.3211" x2="-0.132516" y2="43.9346" gradientUnits="userSpaceOnUse">
<stop stop-color="#FF3A44"/>
<stop offset="1" stop-color="#C31162"/>
</linearGradient>
<linearGradient id="paint3_linear_2041_169449" x1="5.40816" y1="-0.992207" x2="15.6654" y2="9.1077" gradientUnits="userSpaceOnUse">
<stop stop-color="#32A071"/>
<stop offset="0.07" stop-color="#2DA771"/>
<stop offset="0.48" stop-color="#15CF74"/>
<stop offset="0.8" stop-color="#06E775"/>
<stop offset="1" stop-color="#00F076"/>
</linearGradient>
</defs>
</svg>
