<svg width="18" height="18" viewBox="0 0 18 18" fill="none" xmlns="http://www.w3.org/2000/svg">
<path d="M15.95 16.9L10.25 11.2C9.74995 11.6167 9.17929 11.9374 8.53795 12.162C7.89595 12.3874 7.23328 12.5 6.54995 12.5C4.88329 12.5 3.47062 11.9207 2.31195 10.762C1.15395 9.60405 0.574951 8.19171 0.574951 6.52505C0.574951 4.85838 1.15395 3.44572 2.31195 2.28705C3.47062 1.12905 4.88329 0.550049 6.54995 0.550049C8.21662 0.550049 9.62928 1.12905 10.788 2.28705C11.946 3.44572 12.525 4.85838 12.525 6.52505C12.525 7.22505 12.4083 7.90005 12.175 8.55005C11.9416 9.20005 11.625 9.75838 11.225 10.225L16.975 15.95C17.0916 16.0667 17.15 16.221 17.15 16.413C17.15 16.6044 17.0833 16.7667 16.95 16.9C16.8 17.05 16.6293 17.125 16.438 17.125C16.246 17.125 16.0833 17.05 15.95 16.9ZM6.54995 11.1C7.83328 11.1 8.91662 10.6584 9.79995 9.77505C10.6833 8.89172 11.125 7.80838 11.125 6.52505C11.125 5.24171 10.6833 4.15838 9.79995 3.27505C8.91662 2.39172 7.83328 1.95005 6.54995 1.95005C5.26662 1.95005 4.18328 2.39172 3.29995 3.27505C2.41662 4.15838 1.97495 5.24171 1.97495 6.52505C1.97495 7.80838 2.41662 8.89172 3.29995 9.77505C4.18328 10.6584 5.26662 11.1 6.54995 11.1Z" fill="white"/>
</svg>
